<?xml version="1.0" ?><svg style="enable-background:new 0 0 512 512;" version="1.1" viewBox="0 0 512 512" xml:space="preserve" xmlns="http://www.w3.org/2000/svg" xmlns:xlink="http://www.w3.org/1999/xlink"><style type="text/css">
	.st0{display:none;}
	.st1{fill:#FFFFFF;}
	.st2{fill:#EC1C24;}
</style><g class="st0" id="Layer_1"/><g id="Layer_4"><g><rect class="st1" height="341.3" width="384.5" x="64.4" y="85.7"/><path class="st2" d="M448.5,425.7C401.2,312.6,354,199.5,306.7,86.2c0.9,0,1.6,0,2.2,0c45.9,0,91.9,0,137.8,0    c1.7,0,2.2,0.4,2.2,2.2c0,112,0,224,0,335.9c0,0.4,0,0.9,0,1.3C448.7,425.6,448.6,425.6,448.5,425.7z"/><path class="st2" d="M64.4,425.3c0-0.7,0-1.5,0-2.2c0-111.5,0-222.9,0-334.4c0-1.9,0.3-2.5,2.4-2.5c45.7,0.1,91.5,0.1,137.2,0.1    c2.5,0,2.5,0,1.5,2.4c-36,86.1-72,172.2-108,258.4c-10.8,25.8-21.6,51.6-32.3,77.4c-0.1,0.3-0.3,0.7-0.5,1    C64.6,425.3,64.5,425.3,64.4,425.3z"/><path class="st2" d="M256.6,211.7c30.3,71.8,60.3,143.2,90.5,214.8c-0.9,0-1.4,0-2,0c-18.5,0-36.9,0-55.4,0    c-1.5,0-2.1-0.5-2.7-1.9c-8.5-21.5-17-43-25.5-64.6c-0.6-1.5-1.3-2.1-3-2c-20.7,0.1-41.4,0-62.1,0.1c-1.8,0-1.9-0.3-1.3-1.9    c20.2-47.6,40.4-95.1,60.6-142.7C256,213,256.3,212.6,256.6,211.7z"/></g></g></svg>